<svg xmlns="http://www.w3.org/2000/svg" version="1.1" viewBox="-5.0 -10.0 110.0 135.0">
 <path d="m85.043 95.746h10.703v-11.918c-0.011719-1.4336-0.19141-2.8477-0.53516-4.2422-0.37109-1.5977-0.87109-3.1484-1.5-4.6602-0.61328-1.5234-1.3711-2.9805-2.2305-4.3711-0.74609-1.2266-1.6172-2.3516-2.6172-3.3828-2.8008-2.8203-5.8438-5.3945-9.0977-7.6914-0.53125-0.375-1.0664-0.73828-1.6055-1.0938v10.613c0 0.0625-0.003906 0.125-0.011718 0.18359 1.2461 0.35938 2.3945 1.0234 3.332 1.9453 1.457 1.4258 2.2969 3.3594 2.3398 5.3906 0.007813 0.56641-0.20312 1.1172-0.58594 1.5234-0.39453 0.40234-0.92578 0.64844-1.4883 0.66016-0.56641 0.007813-1.1172-0.20312-1.5234-0.59766-0.40234-0.38281-0.64844-0.92578-0.66016-1.4883-0.019531-0.92578-0.40234-1.7969-1.0508-2.4453-0.66016-0.65234-1.5547-1.0234-2.4805-1.0352-0.93359 0.011719-1.8398 0.39453-2.5 1.0664-0.66016 0.66797-1.0312 1.5742-1.0312 2.5078 0 0.56641-0.21094 1.1094-0.61719 1.5117-0.39453 0.40625-0.9375 0.62891-1.5 0.62891-0.5625 0.011719-1.1055-0.21484-1.5117-0.61719-0.39062-0.39453-0.625-0.9375-0.625-1.5-0.011719-2.0742 0.80859-4.0625 2.2656-5.5312 0.95703-0.96484 2.1289-1.6523 3.4062-2.0156-0.011719-0.0625-0.015625-0.125-0.015625-0.1875v-13.152c-1.2109-0.65625-2.4492-1.2695-3.7109-1.8359-1.7383-0.78125-3.5195-1.4609-5.3281-2.0391l-12.035 21.984c-0.24219 0.48047-0.59375 0.89453-1.0195 1.2227-0.51953 0.40625-1.1602 0.62891-1.8203 0.62891-0.66016 0-1.2969-0.22266-1.8164-0.62891-0.42578-0.32813-0.76953-0.74219-1.0234-1.2227l-11.938-21.867c-1.7148 0.55469-3.3945 1.2031-5.0391 1.9414-1.6641 0.74219-3.2891 1.5625-4.875 2.4531v10.637c1.3555 0.35156 2.6016 1.0547 3.5977 2.0586 1.457 1.4688 2.2773 3.457 2.2656 5.5312 0.011719 2.0781-0.80859 4.0664-2.2656 5.5352-1.457 1.4648-3.4492 2.2969-5.5234 2.3086-2.0742-0.011719-4.0508-0.84375-5.5078-2.3086-1.4688-1.4688-2.2773-3.457-2.2773-5.5352 0-2.0625 0.80859-4.0508 2.2656-5.5312 0.89844-0.90234 1.9961-1.5664 3.1914-1.9414v-8.1172c-0.19531 0.13281-0.39062 0.26562-0.58594 0.39844-3.2969 2.3086-6.4023 4.8945-9.2656 7.7266-1 1.0195-1.8828 2.1484-2.6367 3.3594-0.875 1.3828-1.6172 2.832-2.2461 4.3398-0.63672 1.5-1.1367 3.0664-1.5117 4.6523-0.33984 1.3828-0.51953 2.8047-0.54297 4.2305v11.918h10.449v-9.1484c0-0.56641 0.22266-1.1094 0.61719-1.5 0.40234-0.40625 0.94531-0.62891 1.5078-0.62891 0.56641 0 1.0977 0.22266 1.5 0.62891 0.39453 0.39062 0.62891 0.93359 0.62891 1.5v9.1484h61.832v-9.1484c0-0.56641 0.22266-1.1094 0.625-1.5 0.39453-0.40625 0.9375-0.62891 1.5-0.62891 0.56641 0 1.1055 0.22266 1.5 0.62891 0.40625 0.39062 0.62891 0.93359 0.62891 1.5zm-45.621-44.828c0.24219-0.054688 0.48438-0.10938 0.72656-0.16406 3.3086-0.72266 6.6914-1.082 10.086-1.0938 3.3828 0.011719 6.7539 0.37109 10.062 1.0859 0.11328 0.023437 0.23047 0.046875 0.34375 0.074218l-10.652 19.457zm-6.3672-29.547c0-4.5312 1.7852-8.8828 4.9766-12.105 3.1602-3.2031 7.4805-5.0117 11.969-5.0117 4.5 0 8.8086 1.8086 11.98 5.0117 3.1797 3.2227 4.9766 7.5742 4.9648 12.105 0.011719 4.5312-1.7852 8.8945-4.9648 12.117-3.1719 3.1914-7.4805 5-11.98 5-4.4883 0-8.8086-1.8086-11.969-5-3.1914-3.2227-4.9766-7.5859-4.9766-12.117zm-13.215 53.34c0-0.94531 0.36328-1.8477 1.0312-2.5195 0.66016-0.67969 1.5664-1.0547 2.5117-1.0625 0.9375 0.007813 1.8398 0.39062 2.5 1.0625 0.66016 0.67188 1.0312 1.5742 1.0195 2.5195 0.011718 0.94922-0.35938 1.8516-1.0195 2.5234-0.66016 0.67969-1.5625 1.0547-2.5117 1.0625-0.93359-0.007813-1.8398-0.38281-2.5078-1.0625-0.66016-0.67188-1.0234-1.5742-1.0234-2.5234zm8.957-53.34c0-5.6484 2.2344-11.082 6.2148-15.105 3.957-4 9.3594-6.2656 14.988-6.2656 5.6367 0 11.043 2.2656 15 6.2656 3.9805 4.0234 6.2109 9.457 6.2031 15.105 0.007813 5.6602-2.2227 11.086-6.2031 15.109-3.957 4-9.3633 6.2656-15 6.2656-5.6289 0-11.031-2.2656-14.988-6.2656-3.9805-4.0234-6.2148-9.4492-6.2148-15.109zm6.6094 26.203c-2.3789 0.69922-4.707 1.5547-6.9688 2.5625-3.6484 1.6406-7.1406 3.6094-10.418 5.8945-3.5 2.4492-6.7969 5.1914-9.8281 8.2148-1.2344 1.2344-2.3281 2.6172-3.2461 4.1055-0.98828 1.5742-1.8477 3.2344-2.5625 4.957-0.72266 1.7109-1.2969 3.4805-1.7227 5.2969-0.41406 1.6914-0.64062 3.4375-0.66016 5.1836v0.03125 11.926c0 1.125 0.44531 2.2109 1.2461 3.0078 0.79688 0.80078 1.8828 1.2461 3.0078 1.2461h91.5c1.1289 0 2.2031-0.44531 3-1.2461 0.80078-0.79688 1.2461-1.8828 1.2461-3.0078v-11.926-0.03125c-0.019531-1.7461-0.23438-3.4922-0.64844-5.1836-0.41406-1.8164-0.98828-3.5938-1.7031-5.3086-0.71094-1.7227-1.5625-3.3828-2.543-4.9688-0.91406-1.5-1.9883-2.8828-3.2109-4.1367-2.9805-3.0117-6.2148-5.7461-9.6719-8.1797-3.2344-2.2891-6.6797-4.2578-10.285-5.875-3.4492-1.5508-7.043-2.7344-10.734-3.5391-3.6055-0.78906-7.2773-1.1836-10.969-1.1953-3.6914 0.011718-7.3828 0.40625-11 1.1953-1.1484 0.25-2.2852 0.53516-3.4102 0.86328-0.14453 0.011718-0.28516 0.054687-0.41797 0.11328zm16.883 35.66-6.0312 5.7773c-0.40234 0.39453-0.94531 0.60547-1.5117 0.59766-0.5625-0.011719-1.1055-0.24609-1.4883-0.65234-0.39453-0.41406-0.60547-0.95703-0.59375-1.5195 0.007813-0.5625 0.24219-1.0938 0.66016-1.4883l6.0195-5.7891c0.40234-0.38281 0.95703-0.59375 1.5195-0.58594 0.56641 0.011719 1.0977 0.24609 1.4922 0.65234 0.38281 0.40234 0.59375 0.95703 0.58203 1.5195-0.007812 0.5625-0.24219 1.0938-0.64844 1.4883zm4.4062 4.0664-6.0312 5.7734c-0.40625 0.39453-0.94922 0.60938-1.5117 0.59766s-1.1055-0.24609-1.5-0.66016c-0.38281-0.40234-0.59766-0.94531-0.58594-1.5117 0.011719-0.5625 0.24609-1.1055 0.64844-1.4883l6.0312-5.7852c0.40625-0.39453 0.94922-0.60937 1.5117-0.58594 0.56641 0.011719 1.1055 0.24219 1.4883 0.64844 0.39453 0.40234 0.60938 0.95703 0.59766 1.5234-0.011719 0.5625-0.24609 1.0938-0.64844 1.4883z" fill-rule="evenodd"/>
<text x="0.0" y="117.5" font-size="5.0" font-weight="bold" font-family="Arbeit Regular, Helvetica, Arial-Unicode, Arial, Sans-serif" fill="#000000"></text><text x="0.0" y="122.5" font-size="5.0" font-weight="bold" font-family="Arbeit Regular, Helvetica, Arial-Unicode, Arial, Sans-serif" fill="#000000"></text></svg>